<svg xmlns="http://www.w3.org/2000/svg" xmlns:svg="http://www.w3.org/2000/svg" xmlns:xlink="http://www.w3.org/1999/xlink" id="svg24" width="177.421" height="229.022" version="1.1" viewBox="0 0 177.421 229.022"><metadata id="metadata28"/><defs id="defs4"><path id="a" d="M 0,6.37 H 177.418 V 235.385 H 0 Z"/><path id="c" d="m 1.588,6.374 h 65.06 V 71.43 H 1.588 Z"/></defs><g id="g22" transform="translate(0,-0.92398933)" style="fill:none;fill-rule:evenodd"><g id="g11" transform="translate(0,-5.446)"><mask id="b" fill="#fff"><use id="use6" width="100%" height="100%" x="0" y="0" xlink:href="#a"/></mask><path id="path9" d="m 7.027,11.692 c -0.942,0 -1.703,0.762 -1.703,1.703 v 214.962 c 0,0.942 0.761,1.703 1.703,1.703 h 163.37 c 0.935,0 1.704,-0.761 1.704,-1.703 V 69.867 L 113.919,11.692 Z m 163.37,223.699 H 7.028 C 3.15,235.39 0,232.227 0,228.357 V 13.395 C 0,9.532 3.15,6.37 7.027,6.37 h 108 a 2.64,2.64 0 0 1 1.883,0.782 l 59.732,59.732 c 0.492,0.499 0.776,1.184 0.776,1.883 v 159.591 c 0,3.87 -3.15,7.034 -7.02,7.034 z" mask="url(#b)" style="fill:#fff"/></g><g id="g18" transform="translate(110.77,-5.446)"><mask id="d" fill="#fff"><use id="use13" width="100%" height="100%" x="0" y="0" xlink:href="#c"/></mask><path id="path16" d="m 6.919,15.458 v 48.94 c 0,0.94 0.761,1.702 1.703,1.702 h 48.94 L 6.918,15.458 Z M 63.986,71.43 H 8.622 c -3.87,0 -7.034,-3.157 -7.034,-7.034 V 9.033 c 0,-1.08 0.65,-2.049 1.648,-2.457 A 2.68,2.68 0 0 1 6.144,7.15 l 59.732,59.732 c 0.754,0.762 0.983,1.904 0.574,2.915 a 2.69,2.69 0 0 1 -2.464,1.634 z" mask="url(#d)" style="fill:#fff"/></g><path id="path20" d="M 88.71,46.81 H 33.978 a 2.671,2.671 0 0 1 -2.665,-2.665 2.671,2.671 0 0 1 2.665,-2.665 h 54.734 a 2.671,2.671 0 0 1 2.665,2.665 2.671,2.671 0 0 1 -2.665,2.666 m 11.702,30.674 h -66.44 a 2.6655,2.6655 0 0 1 0,-5.331 h 66.44 a 2.671,2.671 0 0 1 2.666,2.665 2.671,2.671 0 0 1 -2.666,2.666 m 44.473,30.667 H 33.972 a 2.67,2.67 0 0 1 -2.658,-2.666 2.67,2.67 0 0 1 2.658,-2.665 h 110.915 a 2.667,2.667 0 0 1 0,5.33 m 0,61.335 H 33.972 a 2.67,2.67 0 0 1 -2.658,-2.665 2.67,2.67 0 0 1 2.658,-2.666 h 110.915 a 2.667,2.667 0 0 1 0,5.331 m 0,-30.667 H 33.972 a 2.67,2.67 0 0 1 -2.658,-2.665 2.67,2.67 0 0 1 2.658,-2.666 h 110.915 a 2.667,2.667 0 0 1 0,5.331 m 0,61.334 H 89.433 a 2.671,2.671 0 0 1 -2.665,-2.665 2.671,2.671 0 0 1 2.665,-2.665 h 55.454 a 2.667,2.667 0 0 1 0,5.33" style="fill:#fff"/></g></svg>